<?xml version="1.0" encoding="utf-8"?>
<!-- Generator: Adobe Illustrator 24.1.1, SVG Export Plug-In . SVG Version: 6.00 Build 0)  -->
<svg version="1.1" id="Layer_1" xmlns="http://www.w3.org/2000/svg" xmlns:xlink="http://www.w3.org/1999/xlink" x="0px" y="0px"
	 viewBox="0 0 512 512" style="enable-background:new 0 0 512 512;" xml:space="preserve">
<g>
	<path d="M458.9,172.9c-5.6-0.2-11.1,1.8-15.2,5.7c-13.6,12.8-5,35.7,13.7,36.6c11.7,0.4,21.4-8.7,21.8-20.3
		C479.7,183.2,470.6,173.4,458.9,172.9L458.9,172.9z M462.3,196c-5.2,0-9.3-2.7-9.3-6.2c0-3.5,4.2-6.2,9.3-6.2
		c5.2,0,9.4,2.7,9.4,6.2C471.8,193.3,467.5,196,462.3,196z M511.5,221.2l0.5-0.7c-1.2-7.3-12.1-42.7-20.3-51.3
		c-2.3-2.3-4.1-4.6-7.7-6.7c-29.8-17.3-100.5-27.8-103.8-28.3l-0.6,0.2l-0.3,0.5l-0.3,16.3c-7.2-2.4-59.7-19.4-109-21.2
		c-41.7-1.4-102.5-6.8-183.2,42.7l-2.3,1.5c-37.9,23.6-64.1,52.8-77.7,86.6c-4.3,10.7-10.1,34.7-4.3,57.3c2.4,9.9,7,19.9,13.2,28.7
		c14,20.2,37.4,33.5,62.7,35.7c35.7,3.2,62.7-12.8,72.3-42.9c6.7-20.7,0-51.1-25.3-66.6c-20.6-12.7-42.7-9.7-55.7-1.2
		c-11.2,7.4-17.4,18.9-17.3,31.5c0.3,22.4,19.6,34.3,33.4,34.3c4.1,0,8.1-0.7,12.7-2.2c1.7-0.5,3.3-1.2,4.8-2.2l0.5-0.3l0.3-0.2
		h-0.1c4.1-2.7,5.9-7.7,4.6-12.5c-1.6-5.7-7.2-9.2-13-8l-0.8,0.2l-1,0.3l-1.6,0.6c-3.2,0.7-5.6,0.8-6.1,0.8
		c-1.6-0.1-9.6-2.5-9.6-11.2v-0.1c0-3.2,1.2-5.5,2-6.7c2.5-3.9,9.2-7.7,18.4-6.9c12.1,1,20.7,7.2,26.5,18.8c5.3,10.8,4,24.3-3.6,34
		c-7.5,9.7-20.8,13.8-38.6,11.9S48,341.5,39.8,325.7c-8.3-15.7-8.7-34.3-1.2-48.6c18.1-34.2,52.3-33.8,71.1-30.6
		c27.7,4.8,59.4,30.4,70.6,60c1.8,4.8,2.7,8.5,3.6,11.9l1.2,5.1l31.4,15.3l1.2,0.3l0.2-0.9c-0.2-0.7-0.7-1.3-1.4-10.2
		c-0.6-7.7-1.8-29.1,8.9-39.7c4.2-4.2,10.5-7.8,15.6-9c20.6-5,44.7-1.6,67.4,24.8c11.8,13.7,17.6,19.8,20.5,22.6l1,0.9l1.2,0.9
		l39.2,18.2l0.7-0.3v-0.7c-0.3-0.3-24.3-31.3-20-56.9c3.4-20.3,19.6-18.4,42-15.9c7.3,0.8,15.7,1.8,24.3,2
		c24.1,0.2,50-4.3,65.9-11.3c10.3-4.4,16.9-7.4,21.1-11.2c1.5-1.2,2.2-3.2,3.1-5.4l0.6-1.4c0.7-1.7,1.6-5.4,2-7.4l-0.3-2.3l-2.2,0.4
		c-7.1,4.2-24.6,12.2-41,12.6c-20.3,0.4-61.6-20.7-65.8-22.8c-2.8-6.8-5.7-13.7-8.6-20.4c29.5,19.4,53.9,30.2,72.7,31.8
		c20.8,1.8,37.2-9.5,44.2-14.3L511.5,221.2L511.5,221.2z M427.8,193.3c0.3-8.1,3.7-15.6,9.6-21.1c5.9-5.5,13.7-8.4,21.7-8.1
		c16.7,0.6,29.7,14.6,29.2,31.2c-0.3,8.1-3.7,15.6-9.6,21.1c-5.9,5.6-13.6,8.4-21.7,8.2C440.3,223.9,427.3,209.9,427.8,193.3z"/>
</g>
</svg>
